<svg width="148" height="52" viewBox="0 0 148 52" fill="none" xmlns="http://www.w3.org/2000/svg">
<path d="M19.24 10.12C21.9867 10.12 24.3333 10.6667 26.28 11.76C28.2533 12.8267 29.76 14.3733 30.8 16.4C31.8667 18.4267 32.4 20.8667 32.4 23.72C32.4 26.5733 31.8667 29.0133 30.8 31.04C29.76 33.0667 28.2533 34.6267 26.28 35.72C24.3333 36.7867 21.9867 37.32 19.24 37.32C16.4933 37.32 14.1333 36.7867 12.16 35.72C10.1867 34.6267 8.66667 33.0667 7.6 31.04C6.53333 29.0133 6 26.5733 6 23.72C6 20.8667 6.53333 18.4267 7.6 16.4C8.66667 14.3733 10.1867 12.8267 12.16 11.76C14.1333 10.6667 16.4933 10.12 19.24 10.12ZM19.24 16.36C16.0133 16.36 14.4 18.8133 14.4 23.72C14.4 28.6267 16.0133 31.08 19.24 31.08C22.44 31.08 24.04 28.6267 24.04 23.72C24.04 18.8133 22.44 16.36 19.24 16.36Z" fill="#2962FF"/>
<path d="M35.8169 45.32V16.92H43.1369L43.3369 20.96C43.8969 19.6267 44.7235 18.56 45.8169 17.76C46.9102 16.9333 48.2302 16.52 49.7769 16.52C52.2302 16.52 54.1502 17.4267 55.5369 19.24C56.9502 21.0267 57.6569 23.56 57.6569 26.84C57.6569 30.1467 56.9369 32.72 55.4969 34.56C54.0835 36.4 52.1635 37.32 49.7369 37.32C48.2969 37.32 47.0969 36.9733 46.1369 36.28C45.1769 35.5867 44.4302 34.6667 43.8969 33.52V45.32H35.8169ZM46.6569 31.52C47.5369 31.52 48.2302 31.1867 48.7369 30.52C49.2702 29.8267 49.5369 28.6267 49.5369 26.92C49.5369 25.2133 49.2835 24.0133 48.7769 23.32C48.2702 22.6267 47.5769 22.28 46.6969 22.28C45.8169 22.28 45.1235 22.6667 44.6169 23.44C44.1369 24.2133 43.8969 25.3733 43.8969 26.92C43.8969 28.3867 44.1235 29.52 44.5769 30.32C45.0569 31.12 45.7502 31.52 46.6569 31.52Z" fill="#2962FF"/>
<path d="M71.135 37.32C67.6683 37.32 64.9483 36.4133 62.975 34.6C61.0017 32.7867 60.015 30.2267 60.015 26.92C60.015 24.7067 60.4683 22.8267 61.375 21.28C62.2817 19.7333 63.5483 18.56 65.175 17.76C66.8017 16.9333 68.6817 16.52 70.815 16.52C73.0017 16.52 74.855 16.9333 76.375 17.76C77.9217 18.56 79.095 19.68 79.895 21.12C80.7217 22.56 81.135 24.24 81.135 26.16C81.135 27.1467 81.0683 27.9867 80.935 28.68H67.775C67.9617 29.88 68.335 30.7067 68.895 31.16C69.4817 31.5867 70.255 31.8 71.215 31.8C72.0417 31.8 72.695 31.6267 73.175 31.28C73.6817 30.9333 74.0417 30.4533 74.255 29.84L80.735 31.76C80.3883 32.9867 79.735 34.0133 78.775 34.84C77.815 35.6667 76.6683 36.2933 75.335 36.72C74.0017 37.12 72.6017 37.32 71.135 37.32ZM70.815 22C69.9617 22 69.2817 22.24 68.775 22.72C68.295 23.2 67.975 24.0133 67.815 25.16H73.495C73.3883 24.12 73.1217 23.3333 72.695 22.8C72.295 22.2667 71.6683 22 70.815 22Z" fill="#2962FF"/>
<path d="M84.0981 36.92V16.92H91.3781L91.5781 21.16C92.1648 19.6667 93.0448 18.52 94.2181 17.72C95.3915 16.92 96.8048 16.52 98.4581 16.52C100.485 16.52 102.085 17.12 103.258 18.32C104.431 19.4933 105.018 21.1867 105.018 23.4V36.92H96.9381V25.48C96.9381 24.3867 96.7515 23.6267 96.3781 23.2C96.0315 22.7733 95.5248 22.56 94.8581 22.56C94.0581 22.56 93.4048 22.8533 92.8981 23.44C92.4181 24.0267 92.1781 25 92.1781 26.36V36.92H84.0981Z" fill="#2962FF"/>
<path d="M130.584 16.64H117.504V21.24H127.984V27.36H117.504V36.92H109.344V10.52H130.584V16.64Z" fill="#2962FF"/>
<path d="M137.435 15.16C135.835 15.16 134.675 14.8933 133.955 14.36C133.262 13.8 132.915 12.88 132.915 11.6C132.915 10.32 133.262 9.4 133.955 8.84C134.675 8.28 135.835 8 137.435 8C139.062 8 140.222 8.28 140.915 8.84C141.608 9.4 141.955 10.32 141.955 11.6C141.955 12.88 141.608 13.8 140.915 14.36C140.222 14.8933 139.062 15.16 137.435 15.16ZM141.475 16.92V36.92H133.395V16.92H141.475Z" fill="#2962FF"/>
</svg>
